<svg width="16" height="16" viewBox="0 0 16 16" fill="none" xmlns="http://www.w3.org/2000/svg">
<path d="M8 14.5C5.84375 14.5 3.875 13.375 2.79688 11.5C1.71875 9.64844 1.71875 7.375 2.79688 5.5C3.875 3.64844 5.84375 2.5 8 2.5C10.1328 2.5 12.1016 3.64844 13.1797 5.5C14.2578 7.375 14.2578 9.64844 13.1797 11.5C12.1016 13.375 10.1328 14.5 8 14.5ZM6.10156 6.60156C5.86719 6.83594 5.86719 7.1875 6.10156 7.39844L7.20312 8.5L6.10156 9.60156C5.86719 9.83594 5.86719 10.1875 6.10156 10.3984C6.3125 10.6328 6.66406 10.6328 6.875 10.3984L7.97656 9.29688L9.07812 10.3984C9.3125 10.6328 9.66406 10.6328 9.875 10.3984C10.1094 10.1875 10.1094 9.83594 9.875 9.60156L8.77344 8.5L9.875 7.39844C10.1094 7.1875 10.1094 6.83594 9.875 6.60156C9.66406 6.39062 9.3125 6.39062 9.07812 6.60156L7.97656 7.70312L6.875 6.60156C6.66406 6.39062 6.3125 6.39062 6.10156 6.60156Z" fill="#CC2414"/>
</svg>
