<svg width="16" height="16" viewBox="0 0 16 16" fill="none" xmlns="http://www.w3.org/2000/svg">
<path d="M1 8C1 4.13401 4.13401 1 8 1C11.866 1 15 4.13401 15 8C15 11.866 11.866 15 8 15C4.13401 15 1 11.866 1 8Z" fill="#169455"/>
<path d="M13.0156 4.98438C13.3203 5.26562 13.3203 5.75781 13.0156 6.03906L7.01562 12.0391C6.73438 12.3438 6.24219 12.3438 5.96094 12.0391L2.96094 9.03906C2.65625 8.75781 2.65625 8.26562 2.96094 7.98438C3.24219 7.67969 3.73438 7.67969 4.01562 7.98438L6.5 10.4453L11.9609 4.98438C12.2422 4.67969 12.7344 4.67969 13.0156 4.98438Z" fill="#F5F5F5"/>
</svg>
