<svg width="16" height="16" viewBox="0 0 16 16" fill="none" xmlns="http://www.w3.org/2000/svg">
<path d="M8 3.25C8.32812 3.25 8.63281 3.4375 8.79688 3.71875L13.8594 12.3438C14.0234 12.6484 14.0234 13 13.8594 13.2812C13.6953 13.5859 13.3906 13.75 13.0625 13.75H2.9375C2.58594 13.75 2.28125 13.5859 2.11719 13.2812C1.95312 13 1.95312 12.6484 2.11719 12.3438L7.17969 3.71875C7.34375 3.4375 7.64844 3.25 8 3.25ZM8 6.25C7.67188 6.25 7.4375 6.50781 7.4375 6.8125V9.4375C7.4375 9.76562 7.67188 10 8 10C8.30469 10 8.5625 9.76562 8.5625 9.4375V6.8125C8.5625 6.50781 8.30469 6.25 8 6.25ZM8.75 11.5C8.75 11.1016 8.39844 10.75 8 10.75C7.57812 10.75 7.25 11.1016 7.25 11.5C7.25 11.9219 7.57812 12.25 8 12.25C8.39844 12.25 8.75 11.9219 8.75 11.5Z" fill="#BA5C00"/>
</svg>
