<svg width="96" height="16" viewBox="0 0 96 16" fill="none" xmlns="http://www.w3.org/2000/svg">
<g clip-path="url(#clip0_1_1768)">
<path fill-rule="evenodd" clip-rule="evenodd" d="M4.82215 14.3903C6.72468 14.3903 8.42442 13.3924 9.14976 11.8483L9.18445 11.7758H9.45128L9.47352 11.8745C9.52911 12.1222 9.55535 13.0264 9.58381 13.9839V14.0528H11.0203C11.0145 13.7259 10.9883 13.1994 10.9607 12.6466C10.9238 11.8963 10.8811 11.0456 10.8811 10.5243V1.31543H9.44728V7.68433C9.44728 11.6957 7.05778 13.1251 4.82215 13.1251C2.54249 13.1251 1.43424 11.7224 1.43424 8.83661V1.31543H0V8.92022C0 12.6012 1.57699 14.3903 4.82215 14.3903Z" fill="#185ADB"/>
<path fill-rule="evenodd" clip-rule="evenodd" d="M20.2794 14.4157C22.7232 14.4157 25.5765 13.3453 25.5765 10.3278C25.5765 7.95788 24.056 7.10178 21.7732 6.54766C21.6398 6.51742 21.4837 6.48673 21.3183 6.45427C20.114 6.21678 18.2941 5.85834 18.2941 4.36895C18.2941 3.43192 19.249 2.77773 20.6165 2.77773C21.7181 2.77773 22.6404 3.20911 23.36 4.06076L25.1776 2.68478C24.3344 1.36795 22.7294 0.615479 20.7557 0.615479C18.3671 0.615479 15.7961 1.86871 15.7961 4.618C15.7961 7.12091 17.688 7.79555 19.796 8.31588C19.9036 8.34079 20.0232 8.36614 20.1495 8.39326C21.316 8.64231 23.0785 9.01855 23.0785 10.4666C23.0785 11.6949 21.6269 12.2548 20.2767 12.2548C18.8207 12.2548 17.8561 11.5232 17.0369 10.7156L15.27 12.1708C16.4548 13.7433 17.9606 14.4157 20.2794 14.4157Z" fill="#185ADB"/>
<path fill-rule="evenodd" clip-rule="evenodd" d="M30.6832 8.71264C30.6775 8.62369 30.6561 8.53786 30.657 8.4458H30.6521C30.6517 8.53741 30.6761 8.62058 30.6832 8.71264Z" fill="#185ADB"/>
<path d="M41.2358 7.54384C41.2358 4.34761 39.561 0.615479 34.8411 0.615479C30.9084 0.615479 28.0537 3.51731 28.0537 7.51582C28.0537 11.5784 30.8337 14.4157 34.8135 14.4157C37.304 14.4157 39.1896 13.5627 40.5754 11.8079L38.8245 10.467C37.7127 11.8012 36.5444 12.4238 35.1524 12.4238C32.8896 12.4251 30.5526 10.9358 30.5526 8.44263V8.34168H41.2358V7.54384ZM38.6377 6.52097H30.5526V6.41913C30.5526 4.53572 32.2897 2.43885 34.7851 2.43885C37.1977 2.43885 38.676 3.92645 38.7387 6.4178L38.7413 6.52142L38.6377 6.52097Z" fill="#185ADB"/>
<path fill-rule="evenodd" clip-rule="evenodd" d="M38.6332 6.41918H38.6372C38.635 6.32623 38.6181 6.24129 38.6115 6.15234C38.6172 6.24129 38.6324 6.32534 38.6332 6.41918Z" fill="#185ADB"/>
<path fill-rule="evenodd" clip-rule="evenodd" d="M41.234 8.4436L41.286 8.44405V8.4436H41.234Z" fill="#185ADB"/>
<path fill-rule="evenodd" clip-rule="evenodd" d="M40.5883 11.9403C40.6203 11.9021 40.6559 11.8692 40.6874 11.8296H40.6848C40.6541 11.8669 40.6198 11.9012 40.5883 11.9403Z" fill="#185ADB"/>
<path fill-rule="evenodd" clip-rule="evenodd" d="M53.9962 10.7004L54.1185 10.8227L53.9989 10.6978L53.9962 10.7004Z" fill="#185ADB"/>
<path fill-rule="evenodd" clip-rule="evenodd" d="M50.727 12.2561C48.1756 12.2561 46.3242 10.31 46.3242 7.62828C46.3242 5.22677 47.6424 2.80347 50.5869 2.80347C51.9269 2.80347 52.9262 3.23796 53.9099 4.25327L55.6723 2.64604C54.4418 1.35411 52.6798 0.644775 50.6985 0.644775C46.6516 0.644775 43.8267 3.49368 43.8267 7.57269C43.8267 11.6001 46.6516 14.4157 50.6985 14.4157C52.7594 14.4157 54.4147 13.7601 55.6199 12.4673L53.9655 10.813C53.0787 11.81 52.0772 12.2561 50.727 12.2561Z" fill="#185ADB"/>
<path fill-rule="evenodd" clip-rule="evenodd" d="M67.3042 7.71229C67.3042 10.5999 65.9144 12.256 63.4911 12.256C61.5268 12.256 60.354 10.9361 60.354 8.72493V0.953369H58.025V9.42759C58.025 13.105 60.471 14.4152 62.7604 14.4152C64.7172 14.4152 66.4032 13.5004 67.0552 12.0844L67.0823 12.0257H67.3046V14.0781H69.6328V0.953369H67.3046L67.3042 7.71229Z" fill="#185ADB"/>
<path fill-rule="evenodd" clip-rule="evenodd" d="M60.4551 0.969985L60.4555 0.902832H60.4551V0.969985Z" fill="#185ADB"/>
<path fill-rule="evenodd" clip-rule="evenodd" d="M69.6736 14.1792L69.6836 14.1797V14.1792H69.6736Z" fill="#185ADB"/>
<path fill-rule="evenodd" clip-rule="evenodd" d="M81.1564 0.756551C80.8249 0.660548 80.4813 0.613062 80.1362 0.615573C78.497 0.615573 76.8564 1.59397 76.2351 2.94682L76.208 3.00597H75.9856V0.953564H73.6575V14.0783H75.9856V7.48746C75.9856 4.58474 77.306 3.1127 79.9107 3.1127C80.2318 3.1127 80.597 3.16651 81.0515 3.28125L81.1564 0.756551Z" fill="#185ADB"/>
<path fill-rule="evenodd" clip-rule="evenodd" d="M80.9778 3.3728C81.0191 3.38792 81.0552 3.39193 81.0974 3.40927V3.39949C81.0574 3.38881 81.0178 3.38259 80.9778 3.3728Z" fill="#185ADB"/>
<path fill-rule="evenodd" clip-rule="evenodd" d="M93.3478 6.41921H93.3522C93.3495 6.32181 93.3322 6.23242 93.3251 6.1377C93.33 6.23287 93.3455 6.32048 93.3478 6.41921Z" fill="#185ADB"/>
<path fill-rule="evenodd" clip-rule="evenodd" d="M85.3947 8.69621C85.3893 8.61037 85.3693 8.5321 85.3698 8.4436H85.3649C85.3653 8.53166 85.3871 8.61037 85.3947 8.69621Z" fill="#185ADB"/>
<path fill-rule="evenodd" clip-rule="evenodd" d="M95.9479 8.4436L95.9999 8.44405V8.4436H95.9479Z" fill="#185ADB"/>
<path d="M95.9493 7.54384C95.9493 4.34761 94.2745 0.615479 89.5546 0.615479C85.6219 0.615479 82.7672 3.51731 82.7672 7.51582C82.7672 11.5784 85.5467 14.4157 89.527 14.4157C92.0175 14.4157 93.9031 13.5627 95.2898 11.8079L93.5358 10.467C92.424 11.8012 91.2561 12.4238 89.865 12.4238C87.604 12.4238 85.2652 10.9344 85.2652 8.44218V8.34123H95.9493V7.54384ZM93.3512 6.52097H85.2643V6.41913C85.2643 4.53572 87.0032 2.43751 89.4986 2.43751C91.9103 2.43751 93.3881 3.92512 93.4522 6.41646L93.4548 6.52009L93.3512 6.52097Z" fill="#185ADB"/>
<path fill-rule="evenodd" clip-rule="evenodd" d="M95.3083 11.9323C95.3381 11.8963 95.3715 11.8661 95.4008 11.8296H95.3986C95.3697 11.8669 95.3377 11.8963 95.3083 11.9323Z" fill="#185ADB"/>
</g>
<defs>
<clipPath id="clip0_1_1768">
<rect width="96" height="14.7692" fill="white" transform="translate(0 0.615479)"/>
</clipPath>
</defs>
</svg>
